<svg width="415" height="256" viewBox="0 0 415 256" fill="none" xmlns="http://www.w3.org/2000/svg">
<path fill-rule="evenodd" clip-rule="evenodd" d="M0.0956863 98.1695C-29.017 110.713 -49.3979 139.665 -49.3979 173.378C-49.3979 218.585 -12.7505 255.232 32.4564 255.232C59.9299 255.232 84.242 241.697 99.0885 220.932C104.091 222.352 109.371 223.112 114.829 223.112C134.806 223.112 152.404 212.926 162.712 197.463C170.278 205.593 181.074 210.679 193.057 210.679C209.256 210.679 223.284 201.385 230.101 187.839C241.436 194.455 254.623 198.245 268.694 198.245C294.364 198.245 317.088 185.63 331.004 166.262C335.577 167.523 340.394 168.197 345.368 168.197C353.823 168.197 361.823 166.25 368.944 162.779C376.793 176.537 391.599 185.812 408.572 185.812C433.75 185.812 454.161 165.4 454.161 140.222C454.161 116.913 436.669 97.69 414.096 94.9635L414.096 -20L0.0956967 -20L0.0956863 98.1695ZM165.642 138.15L165.368 138.15C165.398 138.204 165.427 138.259 165.457 138.314C165.519 138.259 165.581 138.204 165.642 138.15Z" fill="#1F265E"/>
</svg>
