<svg width="386" height="141" viewBox="0 0 386 141" fill="none" xmlns="http://www.w3.org/2000/svg">
<circle cx="53.1544" cy="35.63" r="25.37" fill="#D3D4DE"/>
<circle cx="44.3925" cy="23.9256" r="4.65732" fill="#C5C6D0"/>
<circle cx="63.6227" cy="35.4158" r="6.75236" fill="#F1F1F3"/>
<path fill-rule="evenodd" clip-rule="evenodd" d="M71.9842 52.6327C68.9841 55.953 65.1182 58.476 60.7425 59.8457C60.3638 59.0023 60.1532 58.0672 60.1532 57.0828C60.1532 53.3536 63.1763 50.3304 66.9056 50.3304C68.9301 50.3304 70.7466 51.2214 71.9842 52.6327Z" fill="#C5C6D0"/>
<circle cx="47.4113" cy="51.6243" r="3.01873" fill="#C5C6D0"/>
<circle cx="70.3751" cy="26.2545" r="25.37" fill="#1F265E"/>
<path d="M4.56932 69.9293C4.56932 69.9293 5.94123 77.0632 12.09 75.4477C12.09 75.4477 6.93168 79.3988 8.91258 84.07C8.91258 84.07 6.56093 78.7845 1.27006 79.0441C1.27006 79.0441 5.81943 77.5558 4.56932 69.9293Z" fill="#FCFCFC"/>
<path d="M342.836 17.1977C342.836 17.1977 344.208 24.3316 350.357 22.7161C350.357 22.7161 345.199 26.6672 347.18 31.3384C347.18 31.3384 344.828 26.0528 339.537 26.3125C339.537 26.3125 344.087 24.8241 342.836 17.1977Z" fill="#6D75B0"/>
<path d="M4.79165 130.167C4.79165 130.167 5.7313 135.053 9.94274 133.946C9.94274 133.946 6.40968 136.653 7.76643 139.852C7.76643 139.852 6.15574 136.232 2.53193 136.41C2.53193 136.41 5.64788 135.39 4.79165 130.167Z" fill="#6D75B0"/>
<path d="M365.179 68.1838C365.179 68.1838 360.971 70.335 363.096 73.8835C363.096 73.8835 359.692 71.3774 357.132 73.4624C357.132 73.4624 360.008 71.0344 358.886 67.7759C358.886 67.7759 360.641 70.3482 365.179 68.1838Z" fill="white"/>
<path d="M18.1188 120.148C18.1188 120.148 19.0584 125.034 23.2699 123.928C23.2699 123.928 19.7368 126.634 21.0936 129.833C21.0936 129.833 19.4829 126.213 15.8591 126.391C15.8591 126.391 18.975 125.371 18.1188 120.148Z" fill="#6D75B0"/>
<path d="M385.051 99.8316C385.051 99.8316 380.843 101.983 382.968 105.531C382.968 105.531 379.563 103.025 377.004 105.11C377.004 105.11 379.88 102.682 378.758 99.4237C378.758 99.4237 380.513 101.996 385.051 99.8316Z" fill="#6D75B0"/>
</svg>
